HIERARCHY
ROOT hips
{
	OFFSET -0.003675 0.299928 -0.021708
	CHANNELS 6 Xposition Yposition Zposition Xrotation Yrotation Zrotation
	JOINT LowerBack
	{
		OFFSET 0.000919 0.177588 0.009275
		CHANNELS 3 Xrotation Yrotation Zrotation
		JOINT spine
		{
			OFFSET 0.000919 0.177588 0.009275
			CHANNELS 3 Xrotation Yrotation Zrotation
			JOINT chest
			{
				OFFSET 0.000456 0.100015 0.004638
				CHANNELS 3 Xrotation Yrotation Zrotation
				JOINT neck
				{
					OFFSET 0.000456 0.100015 0.004638
					CHANNELS 3 Xrotation Yrotation Zrotation
					JOINT head
					{
						OFFSET 0.000924 0.155147 0.009274
						CHANNELS 6 Xposition Yposition Zposition Xrotation Yrotation Zrotation
						End Site
						{
							OFFSET 0.000000 0.153400 0.000000
						}
					}
				}
				JOINT shoulder.L
				{
					OFFSET 0.019937 0.078966 0.057518
					CHANNELS 6 Xposition Yposition Zposition Yrotation Xrotation Zrotation
					JOINT upper_arm.L
					{
						OFFSET 0.177024 -0.020465 -0.095062
						CHANNELS 6 Xposition Yposition Zposition Xrotation Yrotation Zrotation
						JOINT forearm.L
						{
							OFFSET 0.247100 -0.135500 -0.061800
							CHANNELS 3 Xrotation Yrotation Zrotation
							JOINT hand.L
							{
								OFFSET 0.217000 -0.143000 0.039300
								CHANNELS 3 Xrotation Yrotation Zrotation
								JOINT palm.01.L
								{
									OFFSET 0.021770 -0.038291 0.012954
									CHANNELS 6 Xposition Yposition Zposition Yrotation Xrotation Zrotation
									JOINT f_index.01.L
									{
										OFFSET 0.053215 -0.044137 0.008236
										CHANNELS 3 Xrotation Yrotation Zrotation
										JOINT f_index.02.L
										{
											OFFSET 0.036108 -0.024723 -0.010656
											CHANNELS 3 Xrotation Yrotation Zrotation
											JOINT f_index.03.L
											{
												OFFSET 0.021342 -0.014948 -0.010846
												CHANNELS 3 Xrotation Yrotation Zrotation
												End Site
												{
													OFFSET 0.015600 -0.009860 -0.013421
												}
											}
										}
									}
									JOINT thumb.01.L
									{
										OFFSET -0.009090 -0.002348 -0.024223
										CHANNELS 6 Xposition Yposition Zposition Xrotation Yrotation Zrotation
										JOINT thumb.02.L
										{
											OFFSET 0.019713 -0.035076 -0.011120
											CHANNELS 3 Xrotation Yrotation Zrotation
											JOINT thumb.03.L
											{
												OFFSET 0.024877 -0.021748 -0.005176
												CHANNELS 3 Xrotation Yrotation Zrotation
												End Site
												{
													OFFSET 0.016125 -0.013029 -0.001569
												}
											}
										}
									}
								}
								JOINT palm.02.L
								{
									OFFSET 0.032823 -0.025104 0.012281
									CHANNELS 6 Xposition Yposition Zposition Yrotation Xrotation Zrotation
									JOINT f_middle.01.L
									{
										OFFSET 0.055723 -0.038469 0.008037
										CHANNELS 3 Xrotation Yrotation Zrotation
										JOINT f_middle.02.L
										{
											OFFSET 0.038167 -0.027473 -0.015582
											CHANNELS 3 Xrotation Yrotation Zrotation
											JOINT f_middle.03.L
											{
												OFFSET 0.021707 -0.016587 -0.017037
												CHANNELS 3 Xrotation Yrotation Zrotation
												End Site
												{
													OFFSET 0.014112 -0.010584 -0.014294
												}
											}
										}
									}
								}
								JOINT palm.03.L
								{
									OFFSET 0.039230 -0.011402 0.008390
									CHANNELS 6 Xposition Yposition Zposition Yrotation Xrotation Zrotation
									JOINT f_ring.01.L
									{
										OFFSET 0.061796 -0.031470 0.007910
										CHANNELS 3 Xrotation Yrotation Zrotation
										JOINT f_ring.02.L
										{
											OFFSET 0.033092 -0.023401 -0.019127
											CHANNELS 3 Xrotation Yrotation Zrotation
											JOINT f_ring.03.L
											{
												OFFSET 0.021392 -0.015362 -0.017824
												CHANNELS 3 Xrotation Yrotation Zrotation
												End Site
												{
													OFFSET 0.008670 -0.007297 -0.014686
												}
											}
										}
									}
								}
								JOINT palm.04.L
								{
									OFFSET 0.043417 0.002450 0.002889
									CHANNELS 6 Xposition Yposition Zposition Yrotation Xrotation Zrotation
									JOINT f_pinky.01.L
									{
										OFFSET 0.069986 -0.026156 0.003627
										CHANNELS 3 Xrotation Yrotation Zrotation
										JOINT f_pinky.02.L
										{
											OFFSET 0.018520 -0.012813 -0.016429
											CHANNELS 3 Xrotation Yrotation Zrotation
											JOINT f_pinky.03.L
											{
												OFFSET 0.013822 -0.009796 -0.014947
												CHANNELS 3 Xrotation Yrotation Zrotation
												End Site
												{
													OFFSET 0.007238 -0.006103 -0.011657
												}
											}
										}
									}
								}
							}
						}
					}
				}
				JOINT shoulder.R
				{
					OFFSET -0.016662 0.078957 0.057696
					CHANNELS 6 Xposition Yposition Zposition Yrotation Xrotation Zrotation
					JOINT upper_arm.R
					{
						OFFSET -0.176972 -0.020537 -0.095144
						CHANNELS 6 Xposition Yposition Zposition Xrotation Yrotation Zrotation
						JOINT forearm.R
						{
							OFFSET -0.247100 -0.135500 -0.061800
							CHANNELS 3 Xrotation Yrotation Zrotation
							JOINT hand.R
							{
								OFFSET -0.217000 -0.143000 0.039300
								CHANNELS 3 Xrotation Yrotation Zrotation
								JOINT palm.01.R
								{
									OFFSET -0.021773 -0.038278 0.012988
									CHANNELS 6 Xposition Yposition Zposition Yrotation Xrotation Zrotation
									JOINT f_index.01.R
									{
										OFFSET -0.053212 -0.044139 0.008249
										CHANNELS 3 Xrotation Yrotation Zrotation
										JOINT f_index.02.R
										{
											OFFSET -0.036049 -0.024835 -0.010634
											CHANNELS 3 Xrotation Yrotation Zrotation
											JOINT f_index.03.R
											{
												OFFSET -0.021371 -0.014881 -0.010866
												CHANNELS 3 Xrotation Yrotation Zrotation
												End Site
												{
													OFFSET -0.015584 -0.009883 -0.013422
												}
											}
										}
									}
									JOINT thumb.01.R
									{
										OFFSET 0.009113 -0.002381 -0.024211
										CHANNELS 6 Xposition Yposition Zposition Xrotation Yrotation Zrotation
										JOINT thumb.02.R
										{
											OFFSET -0.019694 -0.035097 -0.011088
											CHANNELS 3 Xrotation Yrotation Zrotation
											JOINT thumb.03.R
											{
												OFFSET -0.024867 -0.021762 -0.005168
												CHANNELS 3 Xrotation Yrotation Zrotation
												End Site
												{
													OFFSET -0.016120 -0.013036 -0.001565
												}
											}
										}
									}
								}
								JOINT palm.02.R
								{
									OFFSET -0.032828 -0.025095 0.012286
									CHANNELS 6 Xposition Yposition Zposition Yrotation Xrotation Zrotation
									JOINT f_middle.01.R
									{
										OFFSET -0.055721 -0.038472 0.008040
										CHANNELS 3 Xrotation Yrotation Zrotation
										JOINT f_middle.02.R
										{
											OFFSET -0.038101 -0.027593 -0.015557
											CHANNELS 3 Xrotation Yrotation Zrotation
											JOINT f_middle.03.R
											{
												OFFSET -0.021730 -0.016530 -0.017054
												CHANNELS 3 Xrotation Yrotation Zrotation
												End Site
												{
													OFFSET -0.014096 -0.010608 -0.014293
												}
											}
										}
									}
								}
								JOINT palm.03.R
								{
									OFFSET -0.039192 -0.011488 0.008390
									CHANNELS 6 Xposition Yposition Zposition Yrotation Xrotation Zrotation
									JOINT f_ring.01.R
									{
										OFFSET -0.061839 -0.031387 0.007876
										CHANNELS 3 Xrotation Yrotation Zrotation
										JOINT f_ring.02.R
										{
											OFFSET -0.033068 -0.023437 -0.019125
											CHANNELS 3 Xrotation Yrotation Zrotation
											JOINT f_ring.03.R
											{
												OFFSET -0.021371 -0.015393 -0.017822
												CHANNELS 3 Xrotation Yrotation Zrotation
												End Site
												{
													OFFSET -0.008654 -0.007321 -0.014684
												}
											}
										}
									}
								}
								JOINT palm.04.R
								{
									OFFSET -0.043421 0.002443 0.002845
									CHANNELS 6 Xposition Yposition Zposition Yrotation Xrotation Zrotation
									JOINT f_pinky.01.R
									{
										OFFSET -0.069983 -0.026169 0.003599
										CHANNELS 3 Xrotation Yrotation Zrotation
										JOINT f_pinky.02.R
										{
											OFFSET -0.018501 -0.012842 -0.016428
											CHANNELS 3 Xrotation Yrotation Zrotation
											JOINT f_pinky.03.R
											{
												OFFSET -0.013806 -0.009821 -0.014946
												CHANNELS 3 Xrotation Yrotation Zrotation
												End Site
												{
													OFFSET -0.007226 -0.006121 -0.011655
												}
											}
										}
									}
								}
							}
						}
					}
				}
			}
		}
	}
	JOINT pelvis.L
	{
		OFFSET 0.000000 0.000000 0.000000
		CHANNELS 6 Xposition Yposition Zposition Xrotation Yrotation Zrotation
		JOINT thigh.L
		{
			OFFSET 0.101675 0.001054 -0.000000
			CHANNELS 3 Xrotation Yrotation Zrotation
			JOINT shin.L
			{
				OFFSET 0.000000 -0.534800 0.041000
				CHANNELS 3 Xrotation Yrotation Zrotation
				JOINT foot.L
				{
					OFFSET 0.000000 -0.452000 -0.044800
					CHANNELS 3 Xrotation Yrotation Zrotation
					JOINT toe.L
					{
						OFFSET -0.000000 -0.068500 0.109600
						CHANNELS 3 Xrotation Yrotation Zrotation
						End Site
						{
							OFFSET -0.000000 0.000000 0.067200
						}
					}
				}
				JOINT heel.L
				{
					OFFSET 0.000000 -0.452000 -0.044800
					CHANNELS 3 Xrotation Yrotation Zrotation
					JOINT heel.02.L
					{
						OFFSET -0.038000 -0.085200 0.016200
						CHANNELS 6 Xposition Yposition Zposition Xrotation Yrotation Zrotation
						End Site
						{
							OFFSET 0.080000 -0.000000 0.000000
						}
					}
				}
			}
		}
	}
	JOINT pelvis.R
	{
		OFFSET 0.000000 0.000000 0.000000
		CHANNELS 6 Xposition Yposition Zposition Xrotation Yrotation Zrotation
		JOINT thigh.R
		{
			OFFSET -0.094325 0.001054 0.000000
			CHANNELS 3 Xrotation Yrotation Zrotation
			JOINT shin.R
			{
				OFFSET 0.000000 -0.534800 0.041000
				CHANNELS 3 Xrotation Yrotation Zrotation
				JOINT foot.R
				{
					OFFSET 0.000000 -0.452000 -0.044800
					CHANNELS 3 Xrotation Yrotation Zrotation
					JOINT toe.R
					{
						OFFSET -0.000000 -0.068500 0.109600
						CHANNELS 3 Xrotation Yrotation Zrotation
						End Site
						{
							OFFSET -0.000000 0.000000 0.067200
						}
					}
				}
				JOINT heel.R
				{
					OFFSET 0.000000 -0.452000 -0.044800
					CHANNELS 3 Xrotation Yrotation Zrotation
					JOINT heel.02.R
					{
						OFFSET 0.038000 -0.085200 0.016200
						CHANNELS 6 Xposition Yposition Zposition Xrotation Yrotation Zrotation
						End Site
						{
							OFFSET -0.080000 0.000000 -0.000000
						}
					}
				}
			}
		}
	}
}
MOTION
Frames: 4
Frame Time: 0.041667
-0.002229 0.254627 -0.025530 -0.198416 -3.930446 -2.517458 -0.000001 0.000000 -0.000000 -0.000001 -0.000000 0.000000 -0.000000 -0.000000 0.000000 0.000000 -0.000000 -0.000001 0.000924 0.155147 0.009274 -2.032620 0.011129 2.889545 0.019937 0.078966 0.057518 2.257958 1.636394 25.215318 0.177025 -0.020465 -0.095062 -3.658449 12.169227 -71.391111 -1.427109 -3.562564 -5.113645 -0.000003 -0.000001 -0.000000 0.021770 -0.038291 0.012954 -0.000000 0.000002 0.000001 -0.000001 0.000000 0.000001 -0.000000 -0.000000 0.000001 -0.000002 0.000002 0.000003 -0.009090 -0.002348 -0.024224 0.000002 0.000003 -0.000002 0.000001 0.000000 -0.000005 0.000000 0.000001 -0.000001 0.032823 -0.025104 0.012281 0.000000 0.000002 -0.000002 -0.000001 0.000005 -0.000004 0.000003 0.000001 0.000001 0.000003 0.000002 -0.000005 0.039230 -0.011402 0.008390 0.000001 0.000003 0.000002 -0.000001 -0.000003 0.000001 0.000001 -0.000002 -0.000005 0.000001 0.000001 0.000004 0.043417 0.002450 0.002889 0.000001 0.000001 -0.000000 -0.000003 -0.000000 -0.000002 -0.000000 0.000001 0.000001 0.000003 -0.000003 -0.000001 -0.016662 0.078957 0.057696 -0.811753 1.419671 -24.817100 -0.176972 -0.020537 -0.095144 -5.329140 -12.245271 68.478309 0.218407 1.589043 5.239700 0.000001 0.000002 0.000003 -0.021773 -0.038278 0.012988 0.000002 0.000004 0.000000 0.000002 0.000001 -0.000005 -0.000001 -0.000001 -0.000002 0.000003 -0.000001 0.000003 0.009113 -0.002381 -0.024212 0.000003 0.000000 -0.000001 0.000001 0.000000 0.000001 -0.000000 0.000001 -0.000001 -0.032828 -0.025095 0.012286 0.000001 0.000003 -0.000004 -0.000000 0.000004 0.000001 -0.000003 0.000002 -0.000007 -0.000001 0.000002 -0.000003 -0.039192 -0.011488 0.008390 0.000000 0.000005 -0.000000 0.000005 0.000001 0.000001 0.000002 -0.000003 0.000002 0.000001 -0.000004 0.000002 -0.043421 0.002443 0.002845 0.000001 0.000003 0.000000 -0.000000 0.000000 0.000001 -0.000003 -0.000001 -0.000003 -0.000001 0.000003 -0.000001 0.000000 0.000000 0.000000 -1.710257 -0.054497 -0.338601 -18.908648 -0.295656 -2.379683 68.480481 0.366754 -3.700805 -0.000005 -0.000001 -0.000000 -0.000005 0.000000 0.000000 0.000002 0.000000 0.000000 -0.038000 -0.085200 0.016200 -0.000003 -0.000000 -0.000000 0.000000 -0.000000 0.000000 -1.675266 -0.054340 0.895595 -6.756225 0.535134 6.109546 47.591450 -0.520295 5.258030 0.000003 -0.000001 -0.000000 0.000001 0.000001 0.000000 0.000007 -0.000001 -0.000000 0.038000 -0.085200 0.016200 -0.000005 0.000000 -0.000000 
-0.002229 0.254627 -0.025530 -0.198416 -3.930446 -2.517458 -0.000001 0.000000 -0.000000 -0.000001 -0.000000 0.000000 -0.000000 -0.000000 0.000000 0.000000 -0.000000 -0.000001 0.000924 0.155147 0.009274 -2.032620 0.011129 2.889545 0.019937 0.078966 0.057518 2.257958 1.636394 25.215318 0.177025 -0.020465 -0.095062 -3.658449 12.169227 -71.391111 -1.427109 -3.562564 -5.113645 -0.000003 -0.000001 -0.000000 0.021770 -0.038291 0.012954 -0.000000 0.000002 0.000001 -0.000001 0.000000 0.000001 -0.000000 -0.000000 0.000001 -0.000002 0.000002 0.000003 -0.009090 -0.002348 -0.024224 0.000002 0.000003 -0.000002 0.000001 0.000000 -0.000005 0.000000 0.000001 -0.000001 0.032823 -0.025104 0.012281 0.000000 0.000002 -0.000002 -0.000001 0.000005 -0.000004 0.000003 0.000001 0.000001 0.000003 0.000002 -0.000005 0.039230 -0.011402 0.008390 0.000001 0.000003 0.000002 -0.000001 -0.000003 0.000001 0.000001 -0.000002 -0.000005 0.000001 0.000001 0.000004 0.043417 0.002450 0.002889 0.000001 0.000001 -0.000000 -0.000003 -0.000000 -0.000002 -0.000000 0.000001 0.000001 0.000003 -0.000003 -0.000001 -0.016662 0.078957 0.057696 -0.811753 1.419671 -24.817100 -0.176972 -0.020537 -0.095144 -5.329140 -12.245271 68.478309 0.218407 1.589043 5.239700 0.000001 0.000002 0.000003 -0.021773 -0.038278 0.012988 0.000002 0.000004 0.000000 0.000002 0.000001 -0.000005 -0.000001 -0.000001 -0.000002 0.000003 -0.000001 0.000003 0.009113 -0.002381 -0.024212 0.000003 0.000000 -0.000001 0.000001 0.000000 0.000001 -0.000000 0.000001 -0.000001 -0.032828 -0.025095 0.012286 0.000001 0.000003 -0.000004 -0.000000 0.000004 0.000001 -0.000003 0.000002 -0.000007 -0.000001 0.000002 -0.000003 -0.039192 -0.011488 0.008390 0.000000 0.000005 -0.000000 0.000005 0.000001 0.000001 0.000002 -0.000003 0.000002 0.000001 -0.000004 0.000002 -0.043421 0.002443 0.002845 0.000001 0.000003 0.000000 -0.000000 0.000000 0.000001 -0.000003 -0.000001 -0.000003 -0.000001 0.000003 -0.000001 0.000000 0.000000 0.000000 -1.710257 -0.054497 -0.338601 -18.908648 -0.295656 -2.379683 68.480481 0.366754 -3.700805 -0.000005 -0.000001 -0.000000 -0.000005 0.000000 0.000000 0.000002 0.000000 0.000000 -0.038000 -0.085200 0.016200 -0.000003 -0.000000 -0.000000 0.000000 -0.000000 0.000000 -1.675266 -0.054340 0.895595 -6.756225 0.535134 6.109546 47.591450 -0.520295 5.258030 0.000003 -0.000001 -0.000000 0.000001 0.000001 0.000000 0.000007 -0.000001 -0.000000 0.038000 -0.085200 0.016200 -0.000005 0.000000 -0.000000 
-0.001877 0.253837 -0.025466 -0.531336 -4.077585 -3.162618 -0.000000 0.000000 0.000000 0.000000 0.000001 0.000000 -0.000000 -0.000000 -0.000000 -0.000000 -0.000000 0.000000 0.000924 0.155148 0.009274 -1.758642 0.010227 3.720557 0.019937 0.078966 0.057518 2.780781 1.629633 25.359523 0.177024 -0.020465 -0.095062 -3.439856 12.147250 -71.099305 -1.847656 -4.043612 -5.108270 -0.000001 0.000001 -0.000001 0.021770 -0.038291 0.012954 0.000000 0.000001 0.000005 -0.000000 0.000001 -0.000001 -0.000000 0.000000 0.000003 -0.000004 0.000001 0.000003 -0.009090 -0.002348 -0.024223 -0.000000 0.000003 -0.000001 -0.000000 0.000001 0.000001 -0.000000 0.000000 0.000001 0.032823 -0.025104 0.012281 -0.000001 -0.000001 -0.000002 0.000001 0.000005 -0.000004 -0.000002 -0.000003 0.000000 -0.000002 -0.000000 -0.000000 0.039230 -0.011402 0.008390 -0.000002 0.000004 0.000002 -0.000001 -0.000001 0.000001 -0.000002 0.000004 0.000002 -0.000000 0.000000 0.000001 0.043417 0.002450 0.002889 -0.000002 -0.000001 0.000000 0.000003 0.000002 -0.000000 0.000002 -0.000001 0.000001 -0.000006 -0.000005 0.000003 -0.016662 0.078957 0.057696 -0.853842 1.335298 -24.950119 -0.176972 -0.020537 -0.095144 -5.275843 -12.342442 68.424009 -0.822665 2.857890 5.693548 -0.000000 0.000002 0.000003 -0.021773 -0.038278 0.012988 -0.000003 0.000002 0.000003 0.000001 0.000000 -0.000001 0.000002 0.000000 -0.000004 0.000000 -0.000001 0.000003 0.009113 -0.002381 -0.024212 0.000005 -0.000000 0.000002 -0.000000 0.000002 -0.000002 -0.000000 0.000001 -0.000002 -0.032828 -0.025095 0.012286 -0.000003 0.000000 0.000002 -0.000001 0.000000 0.000008 0.000001 0.000002 -0.000005 0.000002 0.000003 0.000001 -0.039192 -0.011488 0.008390 -0.000003 0.000001 0.000003 -0.000002 -0.000002 0.000001 0.000004 0.000004 0.000002 -0.000001 -0.000007 -0.000000 -0.043421 0.002443 0.002845 -0.000002 -0.000000 0.000000 0.000002 -0.000001 -0.000008 -0.000004 0.000000 0.000003 0.000006 0.000000 -0.000002 0.000000 0.000000 0.000000 -1.736076 -0.041739 -0.494351 -19.183715 -0.246108 -1.716953 64.587580 0.296004 -2.985755 -0.000005 -0.000001 -0.000001 0.000002 -0.000000 -0.000000 -0.000002 0.000000 0.000001 -0.038000 -0.085200 0.016200 -0.000001 0.000000 0.000000 0.000000 0.000000 0.000000 -1.700140 -0.041676 0.739843 -5.535556 0.456222 5.167271 45.844721 -0.442534 4.470553 0.000000 -0.000000 -0.000000 0.000001 -0.000000 -0.000001 0.000003 0.000001 -0.000001 0.038000 -0.085200 0.016200 0.000000 -0.000001 -0.000000 
-0.002358 0.255167 -0.025301 -1.376870 -3.446117 -2.472075 -0.000000 -0.000000 -0.000000 -0.000000 0.000000 -0.000000 -0.000000 -0.000000 -0.000000 0.000000 -0.000000 -0.000000 0.000924 0.155147 0.009274 -0.223154 0.006171 3.821161 0.019937 0.078966 0.057518 -0.225288 1.678260 26.013155 0.177025 -0.020465 -0.095062 -4.154613 12.266028 -72.388865 -1.349484 -3.571044 -6.654683 -0.000001 0.000001 -0.000001 0.021770 -0.038291 0.012954 -0.000002 0.000001 0.000007 -0.000000 0.000001 -0.000003 -0.000000 0.000000 0.000003 -0.000000 0.000002 -0.000003 -0.009090 -0.002348 -0.024223 -0.000001 0.000003 -0.000006 0.000001 -0.000001 -0.000004 0.000001 0.000001 -0.000002 0.032823 -0.025104 0.012281 -0.000001 0.000001 -0.000005 0.000002 0.000001 -0.000003 -0.000000 0.000000 -0.000001 0.000001 0.000004 -0.000003 0.039230 -0.011402 0.008390 0.000000 0.000000 0.000002 -0.000003 0.000002 -0.000002 -0.000002 0.000006 0.000002 -0.000004 0.000001 0.000002 0.043417 0.002450 0.002889 -0.000001 -0.000000 -0.000003 -0.000005 -0.000002 -0.000000 -0.000004 -0.000000 0.000002 0.000001 0.000001 0.000000 -0.016662 0.078957 0.057696 -4.122266 1.954675 -24.500070 -0.176972 -0.020537 -0.095144 -3.736645 -11.823401 69.341631 0.958002 0.827545 6.139682 -0.000001 0.000001 0.000005 -0.021773 -0.038278 0.012988 0.000000 0.000003 0.000002 0.000001 -0.000001 -0.000008 0.000002 -0.000000 0.000001 -0.000000 0.000001 0.000002 0.009114 -0.002381 -0.024211 0.000003 -0.000001 -0.000004 0.000002 0.000004 -0.000000 0.000001 -0.000001 0.000004 -0.032828 -0.025095 0.012286 -0.000001 -0.000002 0.000002 0.000001 0.000004 -0.000004 0.000001 0.000003 -0.000002 0.000001 0.000002 -0.000003 -0.039192 -0.011488 0.008390 0.000000 -0.000000 -0.000001 0.000001 -0.000003 0.000008 -0.000001 0.000002 -0.000003 -0.000001 0.000001 0.000000 -0.043421 0.002443 0.002845 -0.000000 -0.000000 0.000000 0.000003 -0.000003 -0.000001 -0.000007 0.000002 0.000004 0.000002 0.000005 -0.000002 0.000000 0.000000 -0.000000 -1.687331 -0.040976 -0.502608 -16.767935 -0.216795 -1.478825 65.479569 0.331403 -3.343442 0.000000 0.000000 0.000000 -0.000002 0.000000 0.000000 0.000002 0.000000 0.000000 -0.038000 -0.085200 0.016200 0.000001 0.000000 -0.000000 0.000000 0.000000 0.000000 -1.652396 -0.040919 0.731578 -4.522794 0.512163 5.979674 48.004086 -0.138961 1.403268 0.000002 -0.000000 -0.000000 0.000001 0.000000 0.000000 0.000002 0.000000 -0.000000 0.038000 -0.085200 0.016200 -0.000002 0.000000 0.000001 
